<?xml version="1.0" encoding="UTF-8" standalone="no"?> <svg width="64" height="64" viewBox="0 0 64 64" fill="none" xmlns="http://www.w3.org/2000/svg">
<path d="M60 54.08H57C56.7879 48.9067 54.9792 43.926 51.8225 39.8221C48.6657 35.7181 44.3157 32.6922 39.37 31.16L42.16 28.37C43.3954 27.1277 44.0888 25.447 44.0888 23.695C44.0888 21.943 43.3954 20.2623 42.16 19.02C40.9152 17.7895 39.2354 17.0994 37.485 17.0994C35.7346 17.0994 34.0548 17.7895 32.81 19.02C32.5917 19.232 32.2993 19.3506 31.995 19.3506C31.6907 19.3506 31.3983 19.232 31.18 19.02C29.9298 17.8324 28.2651 17.1803 26.5409 17.2029C24.8167 17.2255 23.1696 17.921 21.951 19.1409C20.7324 20.3608 20.0387 22.0087 20.018 23.7329C19.9972 25.4571 20.6511 27.1211 21.84 28.37L24.63 31.16C19.6843 32.6922 15.3343 35.7181 12.1775 39.8221C9.02079 43.926 7.21212 48.9067 7 54.08H4C3.73478 54.08 3.48043 54.1854 3.29289 54.3729C3.10536 54.5604 3 54.8148 3 55.08V60C3 60.2652 3.10536 60.5196 3.29289 60.7071C3.48043 60.8946 3.73478 61 4 61H60C60.2652 61 60.5196 60.8946 60.7071 60.7071C60.8946 60.5196 61 60.2652 61 60V55.08C61 54.8148 60.8946 54.5604 60.7071 54.3729C60.5196 54.1854 60.2652 54.08 60 54.08ZM23.26 27C22.3967 26.1367 21.9117 24.9659 21.9117 23.745C21.9117 23.1405 22.0308 22.5419 22.2621 21.9834C22.4935 21.4249 22.8325 20.9175 23.26 20.49C23.6875 20.0625 24.1949 19.7235 24.7534 19.4921C25.3119 19.2608 25.9105 19.1417 26.515 19.1417C27.7359 19.1417 28.9067 19.6267 29.77 20.49C30.3692 21.0628 31.1661 21.3824 31.995 21.3824C32.8239 21.3824 33.6208 21.0628 34.22 20.49C34.8647 19.8452 35.6862 19.406 36.5805 19.2281C37.4748 19.0502 38.4018 19.1415 39.2442 19.4905C40.0867 19.8394 40.8067 20.4304 41.3132 21.1886C41.8198 21.9468 42.0901 22.8382 42.09 23.75C42.0926 24.3543 41.9745 24.9531 41.7427 25.5111C41.5109 26.0692 41.17 26.5754 40.74 27L37.12 30.63C33.7419 29.9368 30.2581 29.9368 26.88 30.63L23.26 27ZM32 32.06C37.9306 32.0544 43.6342 34.3399 47.9199 38.4392C52.2056 42.5386 54.7421 48.135 55 54.06H9C9.25785 48.135 11.7944 42.5386 16.0801 38.4392C20.3658 34.3399 26.0694 32.0544 32 32.06V32.06ZM59 59H5V56.08H59V59Z" fill="black"/>
<path d="M51.29 18C51.383 18.0937 51.4936 18.1681 51.6154 18.2189C51.7373 18.2697 51.868 18.2958 52 18.2958C52.132 18.2958 52.2627 18.2697 52.3846 18.2189C52.5064 18.1681 52.617 18.0937 52.71 18L59.33 11.38C60.2582 10.4517 60.7797 9.19276 60.7797 7.88C60.7797 6.56725 60.2582 5.30826 59.33 4.38C58.4017 3.45174 57.1427 2.93025 55.83 2.93025C54.5172 2.93025 53.2582 3.45174 52.33 4.38C52.2346 4.47572 52.1051 4.52967 51.97 4.53C51.8367 4.53028 51.7081 4.48029 51.61 4.39C51.1531 3.92559 50.6083 3.55675 50.0074 3.30499C49.4065 3.05322 48.7615 2.92356 48.11 2.92356C47.4585 2.92356 46.8135 3.05322 46.2126 3.30499C45.6117 3.55675 45.0669 3.92559 44.61 4.39C44.1492 4.84898 43.7836 5.39442 43.5341 5.99504C43.2846 6.59566 43.1562 7.23963 43.1562 7.89C43.1562 8.54037 43.2846 9.18435 43.5341 9.78496C43.7836 10.3856 44.1492 10.931 44.61 11.39L51.29 18ZM46.08 5.86C46.3522 5.58697 46.6756 5.37035 47.0317 5.22254C47.3877 5.07473 47.7695 4.99864 48.155 4.99864C48.5405 4.99864 48.9223 5.07473 49.2783 5.22254C49.6344 5.37035 49.9578 5.58697 50.23 5.86C50.7053 6.31828 51.3398 6.57435 52 6.57435C52.6602 6.57435 53.2947 6.31828 53.77 5.86C54.1816 5.45576 54.703 5.18154 55.2692 5.07149C55.8355 4.96143 56.4217 5.02041 56.9547 5.24108C57.4877 5.46175 57.944 5.83435 58.2668 6.31248C58.5896 6.79061 58.7646 7.35314 58.77 7.93C58.7725 8.31414 58.6986 8.69494 58.5527 9.05029C58.4068 9.40564 58.1917 9.72846 57.92 10L52 15.92L46.08 10C45.5316 9.45067 45.2236 8.70619 45.2236 7.93C45.2236 7.15381 45.5316 6.40933 46.08 5.86V5.86Z" fill="black"/>
</svg>
